<mxfile host="app.diagrams.net" modified="2023-11-23T21:16:21.196Z" agent="Mozilla/5.0 (Windows NT 10.0; Win64; x64) AppleWebKit/537.36 (KHTML, like Gecko) Chrome/119.0.0.0 Safari/537.36" etag="2PG8Ax5J38Ksejxd6k-J" version="22.1.3" type="device">
  <diagram name="Страница — 1" id="B308Hgd9aEI_eeRZ5TRX">
    <mxGraphModel dx="600" dy="305" grid="1" gridSize="10" guides="1" tooltips="1" connect="1" arrows="1" fold="1" page="1" pageScale="1" pageWidth="827" pageHeight="1169" math="0" shadow="0">
      <root>
        <mxCell id="0" />
        <mxCell id="1" parent="0" />
        <mxCell id="dsx3EO92HojU3S_zY_Sa-1" value="" style="endArrow=none;html=1;rounded=0;" edge="1" parent="1">
          <mxGeometry width="50" height="50" relative="1" as="geometry">
            <mxPoint x="320" y="400" as="sourcePoint" />
            <mxPoint x="440" y="400" as="targetPoint" />
          </mxGeometry>
        </mxCell>
        <mxCell id="dsx3EO92HojU3S_zY_Sa-2" value="" style="endArrow=none;html=1;rounded=0;" edge="1" parent="1">
          <mxGeometry width="50" height="50" relative="1" as="geometry">
            <mxPoint x="440" y="400" as="sourcePoint" />
            <mxPoint x="560" y="400" as="targetPoint" />
          </mxGeometry>
        </mxCell>
        <mxCell id="dsx3EO92HojU3S_zY_Sa-3" value="" style="endArrow=none;html=1;rounded=0;" edge="1" parent="1">
          <mxGeometry width="50" height="50" relative="1" as="geometry">
            <mxPoint x="440" y="400" as="sourcePoint" />
            <mxPoint x="440" y="520" as="targetPoint" />
          </mxGeometry>
        </mxCell>
        <mxCell id="dsx3EO92HojU3S_zY_Sa-4" value="" style="endArrow=none;html=1;rounded=0;" edge="1" parent="1">
          <mxGeometry width="50" height="50" relative="1" as="geometry">
            <mxPoint x="440" y="280" as="sourcePoint" />
            <mxPoint x="440" y="400" as="targetPoint" />
          </mxGeometry>
        </mxCell>
        <mxCell id="dsx3EO92HojU3S_zY_Sa-5" value="0" style="text;html=1;strokeColor=none;fillColor=none;align=center;verticalAlign=middle;whiteSpace=wrap;rounded=0;" vertex="1" parent="1">
          <mxGeometry x="292" y="395" width="60" height="30" as="geometry" />
        </mxCell>
        <mxCell id="dsx3EO92HojU3S_zY_Sa-6" value="12" style="text;html=1;strokeColor=none;fillColor=none;align=center;verticalAlign=middle;whiteSpace=wrap;rounded=0;" vertex="1" parent="1">
          <mxGeometry x="398" y="395" width="60" height="30" as="geometry" />
        </mxCell>
        <mxCell id="dsx3EO92HojU3S_zY_Sa-7" value="24" style="text;html=1;strokeColor=none;fillColor=none;align=center;verticalAlign=middle;whiteSpace=wrap;rounded=0;" vertex="1" parent="1">
          <mxGeometry x="523" y="395" width="60" height="30" as="geometry" />
        </mxCell>
        <mxCell id="dsx3EO92HojU3S_zY_Sa-8" value="0" style="text;html=1;strokeColor=none;fillColor=none;align=center;verticalAlign=middle;whiteSpace=wrap;rounded=0;" vertex="1" parent="1">
          <mxGeometry x="420" y="501" width="60" height="30" as="geometry" />
        </mxCell>
        <mxCell id="dsx3EO92HojU3S_zY_Sa-9" value="24" style="text;html=1;strokeColor=none;fillColor=none;align=center;verticalAlign=middle;whiteSpace=wrap;rounded=0;" vertex="1" parent="1">
          <mxGeometry x="420" y="269" width="60" height="30" as="geometry" />
        </mxCell>
        <mxCell id="dsx3EO92HojU3S_zY_Sa-10" value="" style="rounded=0;whiteSpace=wrap;html=1;fillColor=default;strokeColor=#b85450;" vertex="1" parent="1">
          <mxGeometry x="415" y="307" width="5" height="5" as="geometry" />
        </mxCell>
        <mxCell id="dsx3EO92HojU3S_zY_Sa-11" value="" style="endArrow=none;html=1;rounded=0;entryX=0.5;entryY=1;entryDx=0;entryDy=0;" edge="1" parent="1" target="dsx3EO92HojU3S_zY_Sa-10">
          <mxGeometry width="50" height="50" relative="1" as="geometry">
            <mxPoint x="417" y="400" as="sourcePoint" />
            <mxPoint x="395" y="347" as="targetPoint" />
          </mxGeometry>
        </mxCell>
        <mxCell id="dsx3EO92HojU3S_zY_Sa-12" value="" style="endArrow=none;html=1;rounded=0;exitX=0.963;exitY=0.566;exitDx=0;exitDy=0;exitPerimeter=0;" edge="1" parent="1" source="dsx3EO92HojU3S_zY_Sa-10">
          <mxGeometry width="50" height="50" relative="1" as="geometry">
            <mxPoint x="426" y="384" as="sourcePoint" />
            <mxPoint x="440" y="310" as="targetPoint" />
          </mxGeometry>
        </mxCell>
        <mxCell id="dsx3EO92HojU3S_zY_Sa-13" value="Меланхолік" style="text;html=1;strokeColor=none;fillColor=none;align=center;verticalAlign=middle;whiteSpace=wrap;rounded=0;" vertex="1" parent="1">
          <mxGeometry x="350" y="324" width="60" height="30" as="geometry" />
        </mxCell>
        <mxCell id="dsx3EO92HojU3S_zY_Sa-14" value="Флегматик" style="text;html=1;strokeColor=none;fillColor=none;align=center;verticalAlign=middle;whiteSpace=wrap;rounded=0;" vertex="1" parent="1">
          <mxGeometry x="350" y="450" width="60" height="30" as="geometry" />
        </mxCell>
        <mxCell id="dsx3EO92HojU3S_zY_Sa-15" value="Холерик" style="text;html=1;strokeColor=none;fillColor=none;align=center;verticalAlign=middle;whiteSpace=wrap;rounded=0;" vertex="1" parent="1">
          <mxGeometry x="480" y="324" width="60" height="30" as="geometry" />
        </mxCell>
        <mxCell id="dsx3EO92HojU3S_zY_Sa-16" value="Сангвінік" style="text;html=1;strokeColor=none;fillColor=none;align=center;verticalAlign=middle;whiteSpace=wrap;rounded=0;" vertex="1" parent="1">
          <mxGeometry x="480" y="450" width="60" height="30" as="geometry" />
        </mxCell>
      </root>
    </mxGraphModel>
  </diagram>
</mxfile>
